<?xml version="1.0" encoding="utf-8"?>
<!-- Uploaded to: SVG Repo, www.svgrepo.com, Generator: SVG Repo Mixer Tools -->
<svg xmlns="http://www.w3.org/2000/svg" xmlns:xlink="http://www.w3.org/1999/xlink" version="1.1" id="desktopunit"  viewBox="0 0 200 216" enable-background="new 0 0 200 216" xml:space="preserve" width="512" height="512">
<g>
	<path fill="#5CB0FF" d="M175.9961,156C184.8203,156,192,148.8242,192,140.0039V23.9961C192,15.1758,184.8203,8,175.9961,8H24.0039   C15.1797,8,8,15.1758,8,23.9961v116.0078C8,148.8242,15.1797,156,24.0039,156H80h44H175.9961z M68.8281,32.8281L34.7695,66.8867   c-0.7812,0.7812-1.8047,1.1719-2.8281,1.1719s-2.0469-0.3906-2.8281-1.1719c-1.5625-1.5625-1.5625-4.0938,0-5.6562l34.0586-34.0586   c1.5625-1.5625,4.0938-1.5625,5.6562,0S70.3906,31.2656,68.8281,32.8281z"/>
	<rect x="112" y="192" fill="#D0E8FF" width="60" height="4"/>
	<path fill="#D0E8FF" d="M8,180v14c0,7.7188,6.2695,14,13.9766,14h156.0469c7.707,0,13.9766-6.2812,13.9766-14v-14h-68H80H8z    M28,198c0,2.209-1.791,4-4,4s-4-1.791-4-4v-8c0-2.209,1.791-4,4-4s4,1.791,4,4V198z M104,184h76v20h-76V184z"/>
	<rect x="88" y="164" fill="#D0E8FF" width="28" height="8"/>
	<path fill="#1C71DA" d="M175.9961,164C189.2324,164,200,153.2363,200,140.0039V23.9961C200,10.7637,189.2324,0,175.9961,0H24.0039   C10.7676,0,0,10.7637,0,23.9961v116.0078C0,153.2363,10.7676,164,24.0039,164H80v8H0v22c0,12.1309,9.8594,22,21.9766,22h156.0469   C190.1406,216,200,206.1309,200,194v-22h-76v-8H175.9961z M24.0039,156C15.1797,156,8,148.8242,8,140.0039V23.9961   C8,15.1758,15.1797,8,24.0039,8h151.9922C184.8203,8,192,15.1758,192,23.9961v116.0078C192,148.8242,184.8203,156,175.9961,156H124   H80H24.0039z M192,180v14c0,7.7188-6.2695,14-13.9766,14H21.9766C14.2695,208,8,201.7188,8,194v-14h72h44H192z M116,172H88v-8h28   V172z"/>
	<path fill="#1C71DA" d="M180,184h-76v20h76V184z M172,196h-60v-4h60V196z"/>
	<path fill="#1C71DA" d="M24,186c-2.209,0-4,1.791-4,4v8c0,2.209,1.791,4,4,4s4-1.791,4-4v-8C28,187.791,26.209,186,24,186z"/>
	<path fill="#FFFFFF" d="M63.1719,27.1719L29.1133,61.2305c-1.5625,1.5625-1.5625,4.0938,0,5.6562   c0.7812,0.7812,1.8047,1.1719,2.8281,1.1719s2.0469-0.3906,2.8281-1.1719l34.0586-34.0586c1.5625-1.5625,1.5625-4.0938,0-5.6562   S64.7344,25.6094,63.1719,27.1719z"/>
</g>
<path fill="#FF5D5D" d="M32.2524,143.8237c-1.0239,0-2.0474-0.3906-2.8286-1.1714c-1.562-1.5625-1.562-4.0947,0-5.6572  l14.1421-14.1421c1.5625-1.5615,4.0947-1.5615,5.6572,0c1.562,1.5625,1.562,4.0947,0,5.6572l-14.1421,14.1421  C34.2998,143.4331,33.2764,143.8237,32.2524,143.8237z"/>
<path fill="#FF5D5D" d="M46.3945,143.8223c-1.0239,0-2.0474-0.3906-2.8286-1.1714l-14.1421-14.1426  c-1.562-1.5625-1.562-4.0952,0-5.6572c1.563-1.5615,4.0952-1.5605,5.6572,0l14.1421,14.1426c1.562,1.5625,1.562,4.0952,0,5.6572  C48.4419,143.4316,47.418,143.8223,46.3945,143.8223z"/>
<path fill="#00D40B" d="M102.2524,79.8237c-7.7197,0-14-6.2803-14-14s6.2803-14,14-14s14,6.2803,14,14  S109.9722,79.8237,102.2524,79.8237z M102.2524,59.8237c-3.3086,0-6,2.6914-6,6s2.6914,6,6,6s6-2.6914,6-6  S105.561,59.8237,102.2524,59.8237z"/>
<path fill="#FFC504" d="M171.5659,102.4492c-1.0239,0-2.0474-0.3906-2.8286-1.1714l-11.3135-11.3135  c-1.562-1.5625-1.562-4.0947,0-5.6572l11.3135-11.3135c1.5625-1.5615,4.0952-1.5615,5.6567,0l11.314,11.3135  c0.7505,0.7505,1.1719,1.7676,1.1719,2.8286s-0.4214,2.0781-1.1719,2.8286l-11.314,11.3135  C173.6133,102.0586,172.5894,102.4492,171.5659,102.4492z M165.9092,87.1357l5.6567,5.6567l5.6572-5.6567l-5.6572-5.6567  L165.9092,87.1357z"/>
</svg>